# xmcd CD database file
#
# Track frame offsets:
#	150
#	12700
#	31266
#	45133
#	66398
#	82478
#	97106
#	114127
#	130972
#	153746
#	168672
#	190472
#
# Disc length: 2662 seconds
#
# Revision: 0
# Processed by: cddbd v1.4b42PL1 Copyright (c) Steve Scherf et al.
# Submitted via: CDex 1.40Beta5
#
DISCID=a90a640c
DTITLE=Easterling and Glidersleeve - The High Life
DYEAR=1999
DGENRE=Country
TTITLE0=You Ain'tGonna Tell Me Goodbye
TTITLE1=Country Highway
TTITLE2=Another Drunk Phonecall
TTITLE3=The High Life
TTITLE4=The Sons Of Dawes Carter
TTITLE5=Strawberry Blues
TTITLE6=Slow Movin' Train
TTITLE7=The Henshaw House
TTITLE8=Raven
TTITLE9=Girl At The Drive-Thru
TTITLE10=Free
TTITLE11=Bluebirds
EXTD=YEAR: 1999 ID3G:   2
EXTT0=
EXTT1=
EXTT2=
EXTT3=
EXTT4=
EXTT5=
EXTT6=
EXTT7=
EXTT8=
EXTT9=
EXTT10=
EXTT11=
PLAYORDER=
